<svg width="31" height="37" viewBox="0 0 31 37" fill="none" xmlns="http://www.w3.org/2000/svg">
<path d="M29.8197 35.73C29.0787 36.5296 28.0736 36.9788 27.0256 36.9788C25.9776 36.9788 24.9725 36.5296 24.2315 35.73L15.5016 24.9635L6.77182 35.7265C6.40598 36.1277 5.97013 36.4468 5.48943 36.6654C5.00872 36.884 4.49266 36.9977 3.97102 37C3.44938 37.0023 2.93248 36.8931 2.45014 36.6787C1.9678 36.4644 1.52956 36.1491 1.1607 35.7511C0.791842 35.3531 0.499666 34.8802 0.301023 34.3598C0.10238 33.8393 0.00120149 33.2815 0.00332555 32.7187C0.00544962 32.1558 0.110833 31.5989 0.313398 31.0802C0.515962 30.5615 0.811699 30.0912 1.18355 29.6965L10.2657 18.5036L1.18026 7.30351C0.808406 6.90876 0.512669 6.43846 0.310105 5.91976C0.10754 5.40105 0.00215683 4.84421 3.27622e-05 4.28134C-0.00209131 3.71847 0.0990867 3.16071 0.29773 2.64025C0.496373 2.11978 0.788549 1.6469 1.15741 1.24889C1.52627 0.850876 1.96451 0.535606 2.44685 0.321262C2.92919 0.106919 3.44609 -0.0022566 3.96773 3.53517e-05C4.48937 0.00232731 5.00543 0.11604 5.48613 0.334615C5.96684 0.553191 6.40269 0.872303 6.76853 1.27354L15.5016 12.0436L24.2315 1.27354C24.5973 0.872303 25.0332 0.553191 25.5139 0.334615C25.9946 0.11604 26.5106 0.00232731 27.0323 3.53517e-05C27.5539 -0.0022566 28.0708 0.106919 28.5532 0.321262C29.0355 0.535606 29.4737 0.850876 29.8426 1.24889C30.2115 1.6469 30.5036 2.11978 30.7023 2.64025C30.9009 3.16071 31.0021 3.71847 31 4.28134C30.9978 4.84421 30.8925 5.40105 30.6899 5.91976C30.4873 6.43846 30.1916 6.90876 29.8197 7.30351L20.7376 18.5036L29.8197 29.6965C30.1872 30.0925 30.4786 30.5628 30.6775 31.0804C30.8763 31.598 30.9787 32.1529 30.9787 32.7133C30.9787 33.2736 30.8763 33.8285 30.6775 34.3461C30.4786 34.8637 30.1872 35.334 29.8197 35.73Z" fill="#F64F59"/>
</svg>
